<?xml version="1.0" standalone="no"?>
<!DOCTYPE svg PUBLIC "-//W3C//DTD SVG 20010904//EN"
 "http://www.w3.org/TR/2001/REC-SVG-20010904/DTD/svg10.dtd">
<svg version="1.0" xmlns="http://www.w3.org/2000/svg"
 width="96.000000pt" height="82.000000pt" viewBox="0 0 96.000000 82.000000"
 preserveAspectRatio="xMidYMid meet">

<g transform="translate(0.000000,82.000000) scale(0.100000,-0.100000)"
fill="#000000" stroke="none">
<path d="M350 760 c0 -11 7 -20 15 -20 11 0 15 -11 15 -39 0 -32 -4 -41 -22
-46 -13 -4 -43 -19 -68 -33 -29 -17 -61 -27 -92 -28 -63 -1 -106 -21 -124 -56
-19 -36 -12 -71 25 -130 17 -27 32 -67 36 -99 23 -179 161 -301 339 -301 58 0
80 6 140 35 43 21 94 37 129 41 116 13 154 60 117 144 -12 26 -28 55 -37 65
-10 10 -20 44 -24 81 -11 115 -84 217 -187 265 -49 23 -52 26 -52 63 0 27 4
38 15 38 8 0 15 9 15 20 0 16 -7 20 -35 20 l-35 0 0 -73 0 -72 51 -18 c60 -22
120 -74 157 -136 24 -41 27 -56 27 -142 0 -89 -2 -99 -30 -144 -41 -66 -53
-72 -117 -56 -135 34 -315 125 -395 202 -40 37 -41 40 -31 76 22 85 112 179
197 205 l41 13 0 72 0 73 -35 0 c-28 0 -35 -4 -35 -20z m-178 -270 c-19 -38
-39 -67 -43 -64 -5 3 -14 23 -20 44 -10 32 -9 43 2 56 16 19 46 32 76 33 20 1
20 -2 -15 -69z m265 -331 c43 -18 105 -40 138 -49 l60 -17 -33 -17 c-75 -39
-185 -39 -266 -1 -33 16 -75 52 -112 96 -20 25 -54 109 -54 135 0 7 43 -16 95
-51 52 -34 129 -78 172 -96z m381 79 c24 -49 18 -84 -18 -103 -28 -14 -70 -20
-70 -10 0 3 11 23 25 44 13 22 27 51 31 65 8 32 17 33 32 4z"/>
<path d="M214 679 c-10 -17 13 -36 27 -22 12 12 4 33 -11 33 -5 0 -12 -5 -16
-11z"/>
<path d="M14 609 c-10 -17 13 -36 27 -22 12 12 4 33 -11 33 -5 0 -12 -5 -16
-11z"/>
<path d="M55 360 c3 -5 8 -10 11 -10 2 0 4 5 4 10 0 6 -5 10 -11 10 -5 0 -7
-4 -4 -10z"/>
<path d="M835 341 c-7 -12 12 -24 25 -16 11 7 4 25 -10 25 -5 0 -11 -4 -15 -9z"/>
<path d="M910 230 c0 -5 5 -10 11 -10 5 0 7 5 4 10 -3 6 -8 10 -11 10 -2 0 -4
-4 -4 -10z"/>
<path d="M772 34 c4 -21 22 -23 26 -1 2 10 -3 17 -13 17 -10 0 -15 -6 -13 -16z"/>
</g>
</svg>
